<?xml version="1.0" encoding="UTF-8"?>
<!DOCTYPE svg PUBLIC "-//W3C//DTD SVG 1.1//EN" "http://www.w3.org/Graphics/SVG/1.1/DTD/svg11.dtd">
<!-- Creator: CorelDRAW 2021 (64-Bit) -->
<svg xmlns="http://www.w3.org/2000/svg" xml:space="preserve" width="4.2332mm" height="4.2332mm" version="1.1" style="shape-rendering:geometricPrecision; text-rendering:geometricPrecision; image-rendering:optimizeQuality; fill-rule:evenodd; clip-rule:evenodd"
viewBox="0 0 42332 42332"
 xmlns:xlink="http://www.w3.org/1999/xlink"
 xmlns:xodm="http://www.corel.com/coreldraw/odm/2003">
 <defs>
  <style type="text/css">
   <![CDATA[
    .fil0 {fill:#040404}
    .fil2 {fill:#8E8E8E}
    .fil1 {fill:#A3A3A3}
    .fil3 {fill:#D5D5D5}
    .fil4 {fill:#F3F3F3}
   ]]>
  </style>
 </defs>
 <g id="Слой_x0020_1">
  <metadata id="CorelCorpID_0Corel-Layer"/>
  <g id="_2522701567216">
   <path class="fil0" d="M29919 16816c0,-1599 189,-3716 1239,-4870 506,-555 1343,-781 2099,-484 634,249 1039,848 1305,1444 802,1791 1210,8980 -2077,8980 -2126,0 -2566,-3394 -2566,-5070zm-1771 -367c0,2096 524,4941 2076,6049 2189,1562 5145,629 6118,-2314 618,-1871 700,-4281 293,-6235 -1037,-4979 -5613,-4932 -7424,-1934 -747,1236 -1063,2936 -1063,4434z"/>
   <path class="fil0" d="M22284 15900c1988,0 2749,1214 2749,3115 0,3721 -4852,3957 -5245,-70 -113,-1165 14,-1388 566,-2105 167,-218 535,-479 789,-616 298,-160 713,-324 1141,-324zm-4276 1527c0,1533 189,3086 1178,4258 1666,1977 4696,2067 6413,279 1504,-1567 1703,-4682 91,-6294 -1641,-1640 -4370,-1316 -5590,61 -176,198 -93,229 -321,290 180,-374 362,-2518 2378,-3730 237,-142 538,-314 807,-416 1054,-397 1516,-435 2619,-435 0,-1828 130,-1421 -673,-1405 -1628,31 -3581,795 -4719,1939 -620,624 -1183,1447 -1511,2276 -341,861 -672,1979 -672,3177z"/>
   <path class="fil1" d="M14587 29399c74,-102 36,-57 95,-67l114 21c156,41 173,69 341,108 103,-250 -122,-68 122,-245 101,245 -76,9 61,305 195,-130 43,-100 306,-122l-277 -776c-2,-10 -4,-29 -6,-39 -32,-173 -61,-150 -12,-275 1,-1 107,-183 112,-192 -337,-139 69,152 -230,6 -165,-80 -20,-1 -63,-221 -101,-499 8,-141 109,-518l-1484 -532c-274,-107 -463,-191 -732,-307l-1396 -619c-594,-240 -1494,-758 -2050,-1067 -1015,-563 -2738,-1689 -3608,-2499l-795 -732c-721,-765 -1487,-1778 -1883,-2761 -1395,-3459 1437,-5404 4199,-6441 228,-85 602,-165 785,-253 -18,-221 -76,-291 -122,-488 -746,0 -2898,871 -3563,1201 -510,252 -1037,594 -1454,928 -532,425 -795,692 -1206,1238 -2463,3276 568,7270 3177,9330l2094 1510c2431,1594 3971,2186 6459,3193 288,117 594,241 907,314z"/>
   <path class="fil0" d="M9273 10951c21,257 323,1087 427,1283 388,-205 654,-373 1099,-551 1824,-728 3924,-81 3680,1843 -166,1311 -1541,1946 -2641,1946l-1161 0 0 1344c1281,0 2318,-114 3397,696 1978,1484 617,5403 -3573,4062 -488,-157 -1268,-537 -1290,-543 -186,388 -297,945 -488,1343 2004,1061 4822,1285 6660,-120 1210,-926 1747,-2622 1143,-4139 -439,-1101 -1494,-1772 -2611,-2032l201 -105c485,-233 1075,-505 1424,-958 2235,-2903 -758,-6471 -5570,-4471 -144,60 -240,104 -373,177 -185,101 -178,128 -324,225z"/>
   <path class="fil2" d="M15259 27384c-101,377 -210,19 -109,518 43,220 -102,141 63,221 299,146 -107,-145 230,-6 -5,9 -111,191 -112,192 -49,125 -20,102 12,275 2,10 4,29 6,39l277 776c-263,22 -111,-8 -306,122 -137,-296 40,-60 -61,-305 -244,177 -19,-5 -122,245 -168,-39 -185,-67 -341,-108l-114 -21c-59,10 -21,-35 -95,67l3946 1185c319,80 1228,246 1429,343l-488 2749 3613 -1397c306,-123 563,-213 881,-340 332,-133 581,-243 920,-363l1855 -711c-47,-176 -17,-82 -120,-184 -6,-6 -162,-133 -201,-167 -133,-116 -230,-188 -370,-301l-4826 -3910c-136,-110 -286,-243 -408,-324 0,271 -70,484 -106,688l-383 2122c-309,-7 -950,-200 -1307,-282 -620,-140 -3284,-894 -3763,-1123z"/>
   <path class="fil1" d="M37922 27872c53,201 522,465 -61,855 154,231 286,273 283,532 -6,518 -47,70 83,629 -162,-108 -207,-274 -304,-84 -74,142 -1,-19 1,233 1,125 -157,-34 -2,35 240,80 347,-34 663,-254l147 -105c1273,-874 2370,-1491 3022,-3201 265,-695 328,-1299 259,-2120 -146,-1753 -1675,-3940 -2977,-5086 -184,-163 -881,-795 -1053,-841l-73 731c283,74 271,216 454,415l815 895c1525,1935 2058,4413 225,6221 -86,85 -131,127 -214,214l-152 163c-559,552 -978,580 -1116,768z"/>
   <path class="fil0" d="M39082 11685c-1301,0 -1301,-1711 0,-1711 1007,0 997,1711 0,1711zm-2015 -855c0,929 805,1893 1954,1893 935,0 1833,-821 1833,-1772 0,-573 -84,-1099 -566,-1510 -821,-700 -1974,-669 -2659,57 -240,256 -562,863 -562,1332z"/>
   <path class="fil3" d="M34442 29155c-90,429 -11,184 138,503 10,21 26,199 22,217 -40,181 4,90 -160,199 68,95 131,124 133,227l-24 100c-69,315 -27,578 -47,831 441,0 3092,-721 3418,-1160 -155,-69 3,90 2,-35 -2,-252 -75,-91 -1,-233 97,-190 142,-24 304,84 -130,-559 -89,-111 -83,-629 3,-259 -129,-301 -283,-532 583,-390 114,-654 61,-855l-3480 1283z"/>
   <path class="fil3" d="M31816 29583c-55,30 -16,25 -130,52 -73,17 -105,8 -176,11l0 301c166,-68 71,-175 244,-244 -93,199 -5,229 0,493l-183 0 0 240c580,156 210,895 366,1223 322,70 804,10 1241,-101 222,-56 435,-92 645,-149 199,-54 503,-93 681,-177 20,-253 -22,-516 47,-831l24 -100c-2,-103 -65,-132 -133,-227 164,-109 120,-18 160,-199 4,-18 -12,-196 -22,-217 -149,-319 -228,-74 -138,-503l-1904 358c-306,30 -492,-43 -722,70z"/>
   <path class="fil4" d="M31937 31659c-156,-328 214,-1067 -366,-1223l0 -240 183 0c-5,-264 -93,-294 0,-493 -173,69 -78,176 -244,244l0 -301c71,-3 103,6 176,-11 114,-27 75,-22 130,-52 -301,0 -1000,79 -1158,100 -412,53 -908,22 -1349,22 -4,8 -7,14 -8,27 0,13 -6,24 -7,28 -82,389 -46,1644 -46,2083l2010 -63c132,-9 219,-22 324,-38l355 -83z"/>
   <path class="fil1" d="M31264 14922l2626 1283c-90,-189 -61,-224 -61,-489l-2504 -1161c0,249 20,197 -61,367z"/>
   <path class="fil1" d="M24972 12784c514,11 1811,568 2321,611 51,-108 71,-198 122,-306 -265,-22 -845,-224 -1104,-300 -270,-80 -984,-127 -1339,-127l0 122z"/>
   <path class="fil1" d="M17214 11501c352,0 541,24 804,51 263,28 634,72 845,72 82,-122 111,-170 184,-306 -220,-5 -737,-80 -935,-105 -348,-44 -675,-78 -1020,-78 44,189 78,177 122,366z"/>
   <path class="fil2" d="M19474 40639l18 -18c-1,1 -24,12 -18,18z"/>
  </g>
 </g>
</svg>
