<?xml version="1.0"?>
<svg xmlns="http://www.w3.org/2000/svg" xmlns:xlink="http://www.w3.org/1999/xlink" xmlns:svgjs="http://svgjs.com/svgjs" version="1.1" width="512" height="512" x="0" y="0" viewBox="0 0 512.005 512.005" style="enable-background:new 0 0 512 512" xml:space="preserve" class=""><g>
<g xmlns="http://www.w3.org/2000/svg">
	<g>
		<g>
			<path d="M230.402,157.866c-4.71,0-8.533,3.814-8.533,8.533v179.2c0,4.719,3.823,8.533,8.533,8.533     c4.71,0,8.533-3.814,8.533-8.533V166.4C238.935,161.681,235.112,157.866,230.402,157.866z" fill="#2f4f4f" data-original="#000000" style=""/>
			<path d="M281.602,157.866c-4.71,0-8.533,3.814-8.533,8.533v179.2c0,4.719,3.823,8.533,8.533,8.533s8.533-3.814,8.533-8.533V166.4     C290.135,161.681,286.312,157.866,281.602,157.866z" fill="#2f4f4f" data-original="#000000" style=""/>
			<path d="M510.023,254.8L424.69,152.4c-2.304-2.756-6.084-3.772-9.455-2.56c-3.379,1.229-5.632,4.437-5.632,8.03v51.2h-85.333     c-4.71,0-8.533,3.814-8.533,8.533v76.8c0,4.71,3.823,8.533,8.533,8.533h85.333v51.2c0,3.524,2.167,6.69,5.453,7.953     c1.007,0.393,2.048,0.58,3.081,0.58c2.355,0,4.668-0.981,6.315-2.799l85.333-93.867     C512.651,262.855,512.754,258.077,510.023,254.8z" fill="#2f4f4f" data-original="#000000" style=""/>
			<path d="M187.735,209.066h-85.333v-51.2c0-3.593-2.253-6.801-5.632-8.021c-3.371-1.22-7.159-0.205-9.455,2.551l-85.333,102.4     c-2.731,3.277-2.628,8.064,0.239,11.213l85.333,93.867c1.655,1.818,3.959,2.79,6.315,2.79c1.033,0,2.074-0.179,3.081-0.572     c3.285-1.271,5.453-4.437,5.453-7.962v-51.2h85.333c4.71,0,8.533-3.814,8.533-8.533v-76.8     C196.269,212.881,192.446,209.066,187.735,209.066z" fill="#2f4f4f" data-original="#000000" style=""/>
		</g>
	</g>
</g>
<g xmlns="http://www.w3.org/2000/svg">
</g>
<g xmlns="http://www.w3.org/2000/svg">
</g>
<g xmlns="http://www.w3.org/2000/svg">
</g>
<g xmlns="http://www.w3.org/2000/svg">
</g>
<g xmlns="http://www.w3.org/2000/svg">
</g>
<g xmlns="http://www.w3.org/2000/svg">
</g>
<g xmlns="http://www.w3.org/2000/svg">
</g>
<g xmlns="http://www.w3.org/2000/svg">
</g>
<g xmlns="http://www.w3.org/2000/svg">
</g>
<g xmlns="http://www.w3.org/2000/svg">
</g>
<g xmlns="http://www.w3.org/2000/svg">
</g>
<g xmlns="http://www.w3.org/2000/svg">
</g>
<g xmlns="http://www.w3.org/2000/svg">
</g>
<g xmlns="http://www.w3.org/2000/svg">
</g>
<g xmlns="http://www.w3.org/2000/svg">
</g>
</g></svg>
